#!OML:ASF H:\GeneralSubjects\Female5\Project 1\Capture day 1\Session 1\Female5.ASF
:FULLY-SPECIFIED
:DEGREES
265
root -8.92806 15.7535 -0.347535 -168.471 2.15964 -173.544
lowerback 8.89934 0.751605 -0.249364
upperback -10.222 1.99493 1.4964
thorax -16.5869 1.39927 1.28297
lowerneck -17.4094 -2.63482 -0.615441
upperneck 30.1452 -5.86535 1.06273
head 13.0445 -3.18761 -0.589068
rclavicle -6.21202e-015 -9.54166e-015
rhumerus -56.6559 20.7282 -81.6152
rradius 37.9096
rwrist -11.2769
rhand -25.1068 -14.1156
rfingers 7.12502
rthumb 1.40846 -44.0907
lclavicle -6.21202e-015 -9.54166e-015
lhumerus -46.1511 2.87028 65.6895
lradius 27.7067
lwrist -9.14137
lhand -30.4478 32.0383
lfingers 7.12502
lthumb -3.7499 61.985
rfemur -1.25382 34.559 2.55199
rtibia -2.48464
rfoot -42.1075 -31.5735
rtoes 33.7011
lfemur -18.7477 -7.15885 -4.07763
ltibia 24.419
lfoot -0.92239 -17.8646
ltoes -11.4632
266
root -8.67273 15.6599 -0.330675 -168.899 2.04891 -174.204
lowerback 8.80085 0.645386 -0.324794
upperback -10.2034 1.78009 1.19082
thorax -16.4786 1.27796 1.03176
lowerneck -17.1053 -2.58882 -0.823385
upperneck 30.1479 -5.74672 1.02661
head 12.9848 -3.17916 -0.542872
rclavicle -9.83984e-015 1.94809e-014
rhumerus -56.7529 20.281 -81.3737
rradius 37.6
rwrist -10.276
rhand -24.5504 -13.8258
rfingers 7.12502
rthumb 1.94576 -43.7966
lclavicle -9.83984e-015 1.94809e-014
lhumerus -46.5392 2.65658 65.589
lradius 28.1149
lwrist -8.47037
lhand -31.2186 32.5497
lfingers 7.12502
lthumb -4.49421 62.482
rfemur -1.92987 28.1302 1.8971
rtibia -0.832517
rfoot -32.5049 -29.8773
rtoes 25.9999
lfemur -18.2128 -8.30241 -3.80138
ltibia 24.1
lfoot -1.22364 -18.5297
ltoes -12.4171
267
root -8.38981 15.5729 -0.307176 -169.229 2.00668 -175.024
lowerback 8.60184 0.601897 -0.920862
upperback -10.1681 1.57142 0.91105
thorax -16.3026 1.22451 1.10223
lowerneck -16.9522 -2.55256 -1.04184
upperneck 30.1705 -5.62011 0.971951
head 12.9647 -3.16298 -0.503982
rclavicle 9.93923e-017 -2.38542e-015
rhumerus -57.0353 20.2529 -81.3723
rradius 37.5763
rwrist -9.77479
rhand -23.8236 -13.6339
rfingers 7.12502
rthumb 2.6477 -43.5973
lclavicle 9.93923e-017 -2.38542e-015
lhumerus -46.7333 2.44355 65.611
lradius 28.3838
lwrist -7.69913
lhand -31.915 32.9592
lfingers 7.12502
lthumb -5.16665 62.8762
rfemur -2.49089 23.6093 1.57218
rtibia 1.11738
rfoot -27.5691 -26.2191
rtoes 18.3726
lfemur -17.8176 -9.49156 -3.61093
ltibia 23.8813
lfoot -1.57363 -19.093
ltoes -12.9012
268
root -8.08767 15.4929 -0.272794 -169.48 1.93677 -175.673
lowerback 8.44693 0.601244 -1.57558
upperback -10.132 1.43736 0.754457
thorax -16.164 1.22387 1.32646
lowerneck -17.007 -2.51787 -1.2873
upperneck 30.2977 -5.45412 0.827701
head 13.0289 -3.1381 -0.495332
rclavicle 9.54166e-015 1.66979e-014
rhumerus -57.4126 20.4622 -81.5575
rradius 37.66
rwrist -9.96908
rhand -24.2943 -13.9992
rfingers 7.12502
rthumb 2.19314 -43.9676
lclavicle 9.54166e-015 1.66979e-014
lhumerus -46.8515 2.91781 65.4403
lradius 28.5823
lwrist -7.65614
lhand -32.017 32.8994
lfingers 7.12502
lthumb -5.2651 62.814
rfemur -2.96136 21.1437 2.01458
rtibia 3.11922
rfoot -26.6076 -22.3632
rtoes 14.0617
lfemur -17.5804 -10.7311 -3.10355
ltibia 23.7027
lfoot -2.01208 -19.4525
ltoes -13.9314
269
root -7.77057 15.4242 -0.233588 -169.785 1.90653 -176.064
lowerback 8.40166 0.59936 -1.93456
upperback -10.0898 1.3524 0.631876
thorax -16.0844 1.21231 1.41058
lowerneck -16.9967 -2.4525 -1.52148
upperneck 30.3772 -5.24517 0.689197
head 13.0589 -3.09384 -0.476816
rclavicle -4.07509e-015 0
rhumerus -57.638 20.4044 -81.7105
rradius 37.6057
rwrist -9.89821
rhand -24.9054 -14.5846
rfingers 7.12502
rthumb 1.60293 -44.5583
lclavicle -4.07509e-015 0
lhumerus -47.1917 3.58962 65.1865
lradius 28.8864
lwrist -7.87325
lhand -32.0811 32.7604
lfingers 7.12502
lthumb -5.32707 62.6735
rfemur -3.02893 18.1816 2.69867
rtibia 4.03977
rfoot -25.8229 -19.4134
rtoes 10.6645
lfemur -17.1763 -12.0164 -2.21442
ltibia 23.3243
lfoot -2.77032 -19.6341
ltoes -14.9615
270
root -7.4382 15.3746 -0.194571 -170.34 1.9488 -176.052
lowerback 8.5632 0.621263 -1.88313
upperback -9.93156 1.34565 0.577919
thorax -15.99 1.18197 1.32566
lowerneck -16.9695 -2.35831 -1.71991
upperneck 30.3844 -4.98982 0.54528
head 13.0532 -3.02301 -0.456296
rclavicle 1.5207e-014 5.96354e-015
rhumerus -57.703 20.3677 -81.9106
rradius 37.5124
rwrist -9.40244
rhand -24.6732 -14.8298
rfingers 7.12502
rthumb 1.82724 -44.8018
lclavicle 1.5207e-014 5.96354e-015
lhumerus -47.5787 3.83789 65.1766
lradius 29.2809
lwrist -7.47965
lhand -32.4275 32.7718
lfingers 7.12502
lthumb -5.66145 62.6762
rfemur -2.37331 17.6078 4.44237
rtibia 4.24304
rfoot -27.4852 -17.909
rtoes 8.65623
lfemur -16.1504 -13.9147 -0.832353
ltibia 22.4223
lfoot -4.71796 -19.7999
ltoes -12.555
